<?xml version="1.0" standalone="no"?><!DOCTYPE svg PUBLIC "-//W3C//DTD SVG 1.1//EN" "http://www.w3.org/Graphics/SVG/1.1/DTD/svg11.dtd"><svg t="1715571351776" class="icon" viewBox="0 0 1024 1024" version="1.1" xmlns="http://www.w3.org/2000/svg" p-id="10830" xmlns:xlink="http://www.w3.org/1999/xlink" width="200" height="200"><path d="M512 1024C229.229714 1024 0 794.770286 0 512S229.229714 0 512 0s512 229.229714 512 512-229.229714 512-512 512z m-89.526857-642.984229a73.142857 73.142857 0 0 0-41.457372 41.472l-120.144457 307.053715a14.628571 14.628571 0 0 0 18.958629 18.958628l307.053714-120.144457a73.142857 73.142857 0 0 0 41.472-41.472l120.144457-307.053714a14.628571 14.628571 0 0 0-18.958628-18.958629l-307.053715 120.144457zM504.685714 541.257143a36.571429 36.571429 0 1 1 0-73.142857 36.571429 36.571429 0 0 1 0 73.142857z" fill="#1296db" p-id="10831"></path></svg>